%TF.GenerationSoftware,KiCad,Pcbnew,7.0.6*%
%TF.CreationDate,2025-05-21T13:55:29+01:00*%
%TF.ProjectId,CubeConnector,43756265-436f-46e6-9e65-63746f722e6b,rev?*%
%TF.SameCoordinates,Original*%
%TF.FileFunction,Soldermask,Top*%
%TF.FilePolarity,Negative*%
%FSLAX46Y46*%
G04 Gerber Fmt 4.6, Leading zero omitted, Abs format (unit mm)*
G04 Created by KiCad (PCBNEW 7.0.6) date 2025-05-21 13:55:29*
%MOMM*%
%LPD*%
G01*
G04 APERTURE LIST*
%ADD10R,1.700000X1.700000*%
%ADD11O,1.700000X1.700000*%
%ADD12R,2.000000X1.800000*%
%ADD13R,0.600000X1.300000*%
G04 APERTURE END LIST*
D10*
%TO.C,REF\u002A\u002A*%
X61280000Y-24600000D03*
D11*
X61280000Y-22060000D03*
X63820000Y-24600000D03*
X63820000Y-22060000D03*
X66360000Y-24600000D03*
X66360000Y-22060000D03*
X68900000Y-24600000D03*
X68900000Y-22060000D03*
X71440000Y-24600000D03*
X71440000Y-22060000D03*
X73980000Y-24600000D03*
X73980000Y-22060000D03*
X76520000Y-24600000D03*
X76520000Y-22060000D03*
X79060000Y-24600000D03*
X79060000Y-22060000D03*
X81600000Y-24600000D03*
X81600000Y-22060000D03*
X84140000Y-24600000D03*
X84140000Y-22060000D03*
X86680000Y-24600000D03*
X86680000Y-22060000D03*
X89220000Y-24600000D03*
X89220000Y-22060000D03*
%TD*%
D12*
%TO.C,REF\u002A\u002A*%
X61600000Y-33600000D03*
X89200000Y-33600000D03*
D13*
X63900000Y-31100000D03*
X64900000Y-31100000D03*
X65900000Y-31100000D03*
X66900000Y-31100000D03*
X67900000Y-31100000D03*
X68900000Y-31100000D03*
X69900000Y-31100000D03*
X70900000Y-31100000D03*
X71900000Y-31100000D03*
X72900000Y-31100000D03*
X73900000Y-31100000D03*
X74900000Y-31100000D03*
X75900000Y-31100000D03*
X76900000Y-31100000D03*
X77900000Y-31100000D03*
X78900000Y-31100000D03*
X79900000Y-31100000D03*
X80900000Y-31100000D03*
X81900000Y-31100000D03*
X82900000Y-31100000D03*
X83900000Y-31100000D03*
X84900000Y-31100000D03*
X85900000Y-31100000D03*
X86900000Y-31100000D03*
%TD*%
M02*
