solid ASCII
  facet normal 0.000000e+00 0.000000e+00 -1.000000e+00
    outer loop
      vertex   4.000000e+01 0.000000e+00 -8.153636e+01
      vertex   3.000000e+01 0.000000e+00 -8.153636e+01
      vertex   4.000000e+01 1.000000e-01 -8.153636e+01
    endloop
  endfacet
  facet normal -0.000000e+00 0.000000e+00 -1.000000e+00
    outer loop
      vertex   4.000000e+01 1.000000e-01 -8.153636e+01
      vertex   3.000000e+01 0.000000e+00 -8.153636e+01
      vertex   3.000000e+01 1.000000e-01 -8.153636e+01
    endloop
  endfacet
  facet normal 1.000000e+00 -0.000000e+00 0.000000e+00
    outer loop
      vertex   4.000000e+01 0.000000e+00 -6.846364e+01
      vertex   4.000000e+01 0.000000e+00 -8.153636e+01
      vertex   4.000000e+01 1.000000e-01 -6.846364e+01
    endloop
  endfacet
  facet normal 1.000000e+00 0.000000e+00 0.000000e+00
    outer loop
      vertex   4.000000e+01 1.000000e-01 -6.846364e+01
      vertex   4.000000e+01 0.000000e+00 -8.153636e+01
      vertex   4.000000e+01 1.000000e-01 -8.153636e+01
    endloop
  endfacet
  facet normal 0.000000e+00 0.000000e+00 1.000000e+00
    outer loop
      vertex   3.000000e+01 0.000000e+00 -6.846364e+01
      vertex   4.000000e+01 0.000000e+00 -6.846364e+01
      vertex   3.000000e+01 1.000000e-01 -6.846364e+01
    endloop
  endfacet
  facet normal -0.000000e+00 0.000000e+00 1.000000e+00
    outer loop
      vertex   3.000000e+01 1.000000e-01 -6.846364e+01
      vertex   4.000000e+01 0.000000e+00 -6.846364e+01
      vertex   4.000000e+01 1.000000e-01 -6.846364e+01
    endloop
  endfacet
  facet normal 1.000000e+00 0.000000e+00 -1.847310e-16
    outer loop
      vertex   3.000000e+01 0.000000e+00 -3.000000e+01
      vertex   3.000000e+01 0.000000e+00 -6.846364e+01
      vertex   3.000000e+01 1.000000e-01 -3.000000e+01
    endloop
  endfacet
  facet normal 1.000000e+00 0.000000e+00 -1.847310e-16
    outer loop
      vertex   3.000000e+01 1.000000e-01 -3.000000e+01
      vertex   3.000000e+01 0.000000e+00 -6.846364e+01
      vertex   3.000000e+01 1.000000e-01 -6.846364e+01
    endloop
  endfacet
  facet normal 0.000000e+00 0.000000e+00 -1.000000e+00
    outer loop
      vertex   6.000000e+01 0.000000e+00 -3.000000e+01
      vertex   3.000000e+01 0.000000e+00 -3.000000e+01
      vertex   6.000000e+01 1.000000e-01 -3.000000e+01
    endloop
  endfacet
  facet normal -0.000000e+00 0.000000e+00 -1.000000e+00
    outer loop
      vertex   6.000000e+01 1.000000e-01 -3.000000e+01
      vertex   3.000000e+01 0.000000e+00 -3.000000e+01
      vertex   3.000000e+01 1.000000e-01 -3.000000e+01
    endloop
  endfacet
  facet normal 1.000000e+00 -0.000000e+00 0.000000e+00
    outer loop
      vertex   6.000000e+01 0.000000e+00 0.000000e+00
      vertex   6.000000e+01 0.000000e+00 -3.000000e+01
      vertex   6.000000e+01 1.000000e-01 0.000000e+00
    endloop
  endfacet
  facet normal 1.000000e+00 0.000000e+00 0.000000e+00
    outer loop
      vertex   6.000000e+01 1.000000e-01 0.000000e+00
      vertex   6.000000e+01 0.000000e+00 -3.000000e+01
      vertex   6.000000e+01 1.000000e-01 -3.000000e+01
    endloop
  endfacet
  facet normal 0.000000e+00 0.000000e+00 1.000000e+00
    outer loop
      vertex   3.000000e+01 0.000000e+00 0.000000e+00
      vertex   6.000000e+01 0.000000e+00 0.000000e+00
      vertex   3.000000e+01 1.000000e-01 0.000000e+00
    endloop
  endfacet
  facet normal -0.000000e+00 0.000000e+00 1.000000e+00
    outer loop
      vertex   3.000000e+01 1.000000e-01 0.000000e+00
      vertex   6.000000e+01 0.000000e+00 0.000000e+00
      vertex   6.000000e+01 1.000000e-01 0.000000e+00
    endloop
  endfacet
  facet normal 1.000000e+00 -0.000000e+00 1.184238e-16
    outer loop
      vertex   3.000000e+01 0.000000e+00 3.000000e+01
      vertex   3.000000e+01 0.000000e+00 0.000000e+00
      vertex   3.000000e+01 1.000000e-01 3.000000e+01
    endloop
  endfacet
  facet normal 1.000000e+00 0.000000e+00 1.184238e-16
    outer loop
      vertex   3.000000e+01 1.000000e-01 3.000000e+01
      vertex   3.000000e+01 0.000000e+00 0.000000e+00
      vertex   3.000000e+01 1.000000e-01 0.000000e+00
    endloop
  endfacet
  facet normal 0.000000e+00 0.000000e+00 1.000000e+00
    outer loop
      vertex   0.000000e+00 0.000000e+00 3.000000e+01
      vertex   3.000000e+01 0.000000e+00 3.000000e+01
      vertex   0.000000e+00 1.000000e-01 3.000000e+01
    endloop
  endfacet
  facet normal -0.000000e+00 0.000000e+00 1.000000e+00
    outer loop
      vertex   0.000000e+00 1.000000e-01 3.000000e+01
      vertex   3.000000e+01 0.000000e+00 3.000000e+01
      vertex   3.000000e+01 1.000000e-01 3.000000e+01
    endloop
  endfacet
  facet normal -1.000000e+00 0.000000e+00 0.000000e+00
    outer loop
      vertex   0.000000e+00 0.000000e+00 0.000000e+00
      vertex   0.000000e+00 0.000000e+00 3.000000e+01
      vertex   0.000000e+00 1.000000e-01 0.000000e+00
    endloop
  endfacet
  facet normal -1.000000e+00 0.000000e+00 0.000000e+00
    outer loop
      vertex   0.000000e+00 1.000000e-01 0.000000e+00
      vertex   0.000000e+00 0.000000e+00 3.000000e+01
      vertex   0.000000e+00 1.000000e-01 3.000000e+01
    endloop
  endfacet
  facet normal 0.000000e+00 -0.000000e+00 1.000000e+00
    outer loop
      vertex   -3.000000e+01 0.000000e+00 0.000000e+00
      vertex   0.000000e+00 0.000000e+00 0.000000e+00
      vertex   -3.000000e+01 1.000000e-01 0.000000e+00
    endloop
  endfacet
  facet normal -0.000000e+00 0.000000e+00 1.000000e+00
    outer loop
      vertex   -3.000000e+01 1.000000e-01 0.000000e+00
      vertex   0.000000e+00 0.000000e+00 0.000000e+00
      vertex   0.000000e+00 1.000000e-01 0.000000e+00
    endloop
  endfacet
  facet normal -1.000000e+00 -3.552714e-14 0.000000e+00
    outer loop
      vertex   -3.000000e+01 0.000000e+00 -3.000000e+01
      vertex   -3.000000e+01 0.000000e+00 0.000000e+00
      vertex   -3.000000e+01 1.000000e-01 -3.000000e+01
    endloop
  endfacet
  facet normal -1.000000e+00 -3.552714e-14 0.000000e+00
    outer loop
      vertex   -3.000000e+01 1.000000e-01 -3.000000e+01
      vertex   -3.000000e+01 0.000000e+00 0.000000e+00
      vertex   -3.000000e+01 1.000000e-01 0.000000e+00
    endloop
  endfacet
  facet normal 0.000000e+00 0.000000e+00 -1.000000e+00
    outer loop
      vertex   0.000000e+00 0.000000e+00 -3.000000e+01
      vertex   -3.000000e+01 0.000000e+00 -3.000000e+01
      vertex   0.000000e+00 1.000000e-01 -3.000000e+01
    endloop
  endfacet
  facet normal -0.000000e+00 0.000000e+00 -1.000000e+00
    outer loop
      vertex   0.000000e+00 1.000000e-01 -3.000000e+01
      vertex   -3.000000e+01 0.000000e+00 -3.000000e+01
      vertex   -3.000000e+01 1.000000e-01 -3.000000e+01
    endloop
  endfacet
  facet normal -1.000000e+00 0.000000e+00 0.000000e+00
    outer loop
      vertex   0.000000e+00 0.000000e+00 -9.000000e+01
      vertex   0.000000e+00 0.000000e+00 -3.000000e+01
      vertex   0.000000e+00 1.000000e-01 -9.000000e+01
    endloop
  endfacet
  facet normal -1.000000e+00 0.000000e+00 0.000000e+00
    outer loop
      vertex   0.000000e+00 1.000000e-01 -9.000000e+01
      vertex   0.000000e+00 0.000000e+00 -3.000000e+01
      vertex   0.000000e+00 1.000000e-01 -3.000000e+01
    endloop
  endfacet
  facet normal 0.000000e+00 0.000000e+00 -1.000000e+00
    outer loop
      vertex   3.000000e+01 0.000000e+00 -9.000000e+01
      vertex   0.000000e+00 0.000000e+00 -9.000000e+01
      vertex   3.000000e+01 1.000000e-01 -9.000000e+01
    endloop
  endfacet
  facet normal -0.000000e+00 0.000000e+00 -1.000000e+00
    outer loop
      vertex   3.000000e+01 1.000000e-01 -9.000000e+01
      vertex   0.000000e+00 0.000000e+00 -9.000000e+01
      vertex   0.000000e+00 1.000000e-01 -9.000000e+01
    endloop
  endfacet
  facet normal 1.000000e+00 -0.000000e+00 8.395242e-16
    outer loop
      vertex   3.000000e+01 0.000000e+00 -8.153636e+01
      vertex   3.000000e+01 0.000000e+00 -9.000000e+01
      vertex   3.000000e+01 1.000000e-01 -8.153636e+01
    endloop
  endfacet
  facet normal 1.000000e+00 0.000000e+00 8.395242e-16
    outer loop
      vertex   3.000000e+01 1.000000e-01 -8.153636e+01
      vertex   3.000000e+01 0.000000e+00 -9.000000e+01
      vertex   3.000000e+01 1.000000e-01 -9.000000e+01
    endloop
  endfacet
  facet normal 0.000000e+00 1.000000e+00 0.000000e+00
    outer loop
      vertex   3.000000e+01 1.000000e-01 -9.000000e+01
      vertex   0.000000e+00 1.000000e-01 -9.000000e+01
      vertex   3.000000e+01 1.000000e-01 -8.153636e+01
    endloop
  endfacet
  facet normal 0.000000e+00 1.000000e+00 -0.000000e+00
    outer loop
      vertex   3.000000e+01 1.000000e-01 -8.153636e+01
      vertex   0.000000e+00 1.000000e-01 -9.000000e+01
      vertex   3.000000e+01 1.000000e-01 -6.846364e+01
    endloop
  endfacet
  facet normal 0.000000e+00 1.000000e+00 0.000000e+00
    outer loop
      vertex   3.000000e+01 1.000000e-01 -8.153636e+01
      vertex   3.000000e+01 1.000000e-01 -6.846364e+01
      vertex   4.000000e+01 1.000000e-01 -8.153636e+01
    endloop
  endfacet
  facet normal 0.000000e+00 1.000000e+00 -0.000000e+00
    outer loop
      vertex   4.000000e+01 1.000000e-01 -8.153636e+01
      vertex   3.000000e+01 1.000000e-01 -6.846364e+01
      vertex   4.000000e+01 1.000000e-01 -6.846364e+01
    endloop
  endfacet
  facet normal 0.000000e+00 1.000000e+00 0.000000e+00
    outer loop
      vertex   0.000000e+00 1.000000e-01 -9.000000e+01
      vertex   0.000000e+00 1.000000e-01 -3.000000e+01
      vertex   3.000000e+01 1.000000e-01 -6.846364e+01
    endloop
  endfacet
  facet normal 0.000000e+00 1.000000e+00 -0.000000e+00
    outer loop
      vertex   3.000000e+01 1.000000e-01 -6.846364e+01
      vertex   0.000000e+00 1.000000e-01 -3.000000e+01
      vertex   3.000000e+01 1.000000e-01 -3.000000e+01
    endloop
  endfacet
  facet normal 0.000000e+00 1.000000e+00 0.000000e+00
    outer loop
      vertex   3.000000e+01 1.000000e-01 -3.000000e+01
      vertex   0.000000e+00 1.000000e-01 -3.000000e+01
      vertex   0.000000e+00 1.000000e-01 0.000000e+00
    endloop
  endfacet
  facet normal 0.000000e+00 1.000000e+00 -0.000000e+00
    outer loop
      vertex   3.000000e+01 1.000000e-01 -3.000000e+01
      vertex   0.000000e+00 1.000000e-01 0.000000e+00
      vertex   3.000000e+01 1.000000e-01 0.000000e+00
    endloop
  endfacet
  facet normal 0.000000e+00 1.000000e+00 0.000000e+00
    outer loop
      vertex   3.000000e+01 1.000000e-01 0.000000e+00
      vertex   0.000000e+00 1.000000e-01 0.000000e+00
      vertex   0.000000e+00 1.000000e-01 3.000000e+01
    endloop
  endfacet
  facet normal 0.000000e+00 1.000000e+00 0.000000e+00
    outer loop
      vertex   3.000000e+01 1.000000e-01 0.000000e+00
      vertex   0.000000e+00 1.000000e-01 3.000000e+01
      vertex   3.000000e+01 1.000000e-01 3.000000e+01
    endloop
  endfacet
  facet normal 0.000000e+00 1.000000e+00 0.000000e+00
    outer loop
      vertex   -3.000000e+01 1.000000e-01 -3.000000e+01
      vertex   -3.000000e+01 1.000000e-01 0.000000e+00
      vertex   0.000000e+00 1.000000e-01 -3.000000e+01
    endloop
  endfacet
  facet normal 0.000000e+00 1.000000e+00 -0.000000e+00
    outer loop
      vertex   0.000000e+00 1.000000e-01 -3.000000e+01
      vertex   -3.000000e+01 1.000000e-01 0.000000e+00
      vertex   0.000000e+00 1.000000e-01 0.000000e+00
    endloop
  endfacet
  facet normal 0.000000e+00 1.000000e+00 0.000000e+00
    outer loop
      vertex   6.000000e+01 1.000000e-01 0.000000e+00
      vertex   6.000000e+01 1.000000e-01 -3.000000e+01
      vertex   3.000000e+01 1.000000e-01 0.000000e+00
    endloop
  endfacet
  facet normal 0.000000e+00 1.000000e+00 0.000000e+00
    outer loop
      vertex   3.000000e+01 1.000000e-01 0.000000e+00
      vertex   6.000000e+01 1.000000e-01 -3.000000e+01
      vertex   3.000000e+01 1.000000e-01 -3.000000e+01
    endloop
  endfacet
  facet normal 0.000000e+00 -1.000000e+00 0.000000e+00
    outer loop
      vertex   3.000000e+01 0.000000e+00 -9.000000e+01
      vertex   3.000000e+01 0.000000e+00 -8.153636e+01
      vertex   0.000000e+00 0.000000e+00 -9.000000e+01
    endloop
  endfacet
  facet normal 0.000000e+00 -1.000000e+00 0.000000e+00
    outer loop
      vertex   0.000000e+00 0.000000e+00 -9.000000e+01
      vertex   3.000000e+01 0.000000e+00 -8.153636e+01
      vertex   3.000000e+01 0.000000e+00 -6.846364e+01
    endloop
  endfacet
  facet normal 0.000000e+00 -1.000000e+00 0.000000e+00
    outer loop
      vertex   0.000000e+00 0.000000e+00 -9.000000e+01
      vertex   3.000000e+01 0.000000e+00 -6.846364e+01
      vertex   0.000000e+00 0.000000e+00 -3.000000e+01
    endloop
  endfacet
  facet normal 0.000000e+00 -1.000000e+00 0.000000e+00
    outer loop
      vertex   0.000000e+00 0.000000e+00 -3.000000e+01
      vertex   3.000000e+01 0.000000e+00 -6.846364e+01
      vertex   3.000000e+01 0.000000e+00 -3.000000e+01
    endloop
  endfacet
  facet normal 0.000000e+00 -1.000000e+00 0.000000e+00
    outer loop
      vertex   0.000000e+00 0.000000e+00 -3.000000e+01
      vertex   3.000000e+01 0.000000e+00 -3.000000e+01
      vertex   0.000000e+00 0.000000e+00 0.000000e+00
    endloop
  endfacet
  facet normal 0.000000e+00 -1.000000e+00 0.000000e+00
    outer loop
      vertex   0.000000e+00 0.000000e+00 0.000000e+00
      vertex   3.000000e+01 0.000000e+00 -3.000000e+01
      vertex   3.000000e+01 0.000000e+00 0.000000e+00
    endloop
  endfacet
  facet normal 0.000000e+00 -1.000000e+00 0.000000e+00
    outer loop
      vertex   0.000000e+00 0.000000e+00 0.000000e+00
      vertex   3.000000e+01 0.000000e+00 0.000000e+00
      vertex   0.000000e+00 0.000000e+00 3.000000e+01
    endloop
  endfacet
  facet normal 0.000000e+00 -1.000000e+00 0.000000e+00
    outer loop
      vertex   0.000000e+00 0.000000e+00 3.000000e+01
      vertex   3.000000e+01 0.000000e+00 0.000000e+00
      vertex   3.000000e+01 0.000000e+00 3.000000e+01
    endloop
  endfacet
  facet normal 0.000000e+00 -1.000000e+00 0.000000e+00
    outer loop
      vertex   3.000000e+01 0.000000e+00 -8.153636e+01
      vertex   4.000000e+01 0.000000e+00 -8.153636e+01
      vertex   3.000000e+01 0.000000e+00 -6.846364e+01
    endloop
  endfacet
  facet normal 0.000000e+00 -1.000000e+00 0.000000e+00
    outer loop
      vertex   3.000000e+01 0.000000e+00 -6.846364e+01
      vertex   4.000000e+01 0.000000e+00 -8.153636e+01
      vertex   4.000000e+01 0.000000e+00 -6.846364e+01
    endloop
  endfacet
  facet normal 0.000000e+00 -1.000000e+00 0.000000e+00
    outer loop
      vertex   3.000000e+01 0.000000e+00 -3.000000e+01
      vertex   6.000000e+01 0.000000e+00 -3.000000e+01
      vertex   3.000000e+01 0.000000e+00 0.000000e+00
    endloop
  endfacet
  facet normal 0.000000e+00 -1.000000e+00 0.000000e+00
    outer loop
      vertex   3.000000e+01 0.000000e+00 0.000000e+00
      vertex   6.000000e+01 0.000000e+00 -3.000000e+01
      vertex   6.000000e+01 0.000000e+00 0.000000e+00
    endloop
  endfacet
  facet normal -0.000000e+00 -1.000000e+00 -0.000000e+00
    outer loop
      vertex   0.000000e+00 0.000000e+00 0.000000e+00
      vertex   -3.000000e+01 0.000000e+00 0.000000e+00
      vertex   0.000000e+00 0.000000e+00 -3.000000e+01
    endloop
  endfacet
  facet normal 0.000000e+00 -1.000000e+00 0.000000e+00
    outer loop
      vertex   0.000000e+00 0.000000e+00 -3.000000e+01
      vertex   -3.000000e+01 0.000000e+00 0.000000e+00
      vertex   -3.000000e+01 0.000000e+00 -3.000000e+01
    endloop
  endfacet
endsolid
