%TF.GenerationSoftware,KiCad,Pcbnew,7.0.6*%
%TF.CreationDate,2025-05-22T13:23:26+01:00*%
%TF.ProjectId,CubeConnector,43756265-436f-46e6-9e65-63746f722e6b,rev?*%
%TF.SameCoordinates,Original*%
%TF.FileFunction,Copper,L2,Bot*%
%TF.FilePolarity,Positive*%
%FSLAX46Y46*%
G04 Gerber Fmt 4.6, Leading zero omitted, Abs format (unit mm)*
G04 Created by KiCad (PCBNEW 7.0.6) date 2025-05-22 13:23:26*
%MOMM*%
%LPD*%
G01*
G04 APERTURE LIST*
%TA.AperFunction,ComponentPad*%
%ADD10R,1.700000X1.700000*%
%TD*%
%TA.AperFunction,ComponentPad*%
%ADD11O,1.700000X1.700000*%
%TD*%
%TA.AperFunction,SMDPad,CuDef*%
%ADD12R,2.000000X1.800000*%
%TD*%
%TA.AperFunction,SMDPad,CuDef*%
%ADD13R,0.600000X1.300000*%
%TD*%
%TA.AperFunction,ViaPad*%
%ADD14C,0.800000*%
%TD*%
%TA.AperFunction,Conductor*%
%ADD15C,0.250000*%
%TD*%
G04 APERTURE END LIST*
D10*
%TO.P,REF\u002A\u002A,1*%
%TO.N,N/C*%
X61280000Y-24600000D03*
D11*
%TO.P,REF\u002A\u002A,2*%
X61280000Y-22060000D03*
%TO.P,REF\u002A\u002A,3*%
X63820000Y-24600000D03*
%TO.P,REF\u002A\u002A,4*%
X63820000Y-22060000D03*
%TO.P,REF\u002A\u002A,5*%
X66360000Y-24600000D03*
%TO.P,REF\u002A\u002A,6*%
X66360000Y-22060000D03*
%TO.P,REF\u002A\u002A,7*%
X68900000Y-24600000D03*
%TO.P,REF\u002A\u002A,8*%
X68900000Y-22060000D03*
%TO.P,REF\u002A\u002A,9*%
X71440000Y-24600000D03*
%TO.P,REF\u002A\u002A,10*%
X71440000Y-22060000D03*
%TO.P,REF\u002A\u002A,11*%
X73980000Y-24600000D03*
%TO.P,REF\u002A\u002A,12*%
X73980000Y-22060000D03*
%TO.P,REF\u002A\u002A,13*%
X76520000Y-24600000D03*
%TO.P,REF\u002A\u002A,14*%
X76520000Y-22060000D03*
%TO.P,REF\u002A\u002A,15*%
X79060000Y-24600000D03*
%TO.P,REF\u002A\u002A,16*%
X79060000Y-22060000D03*
%TO.P,REF\u002A\u002A,17*%
X81600000Y-24600000D03*
%TO.P,REF\u002A\u002A,18*%
X81600000Y-22060000D03*
%TO.P,REF\u002A\u002A,19*%
X84140000Y-24600000D03*
%TO.P,REF\u002A\u002A,20*%
X84140000Y-22060000D03*
%TO.P,REF\u002A\u002A,21*%
X86680000Y-24600000D03*
%TO.P,REF\u002A\u002A,22*%
X86680000Y-22060000D03*
%TO.P,REF\u002A\u002A,23*%
X89220000Y-24600000D03*
%TO.P,REF\u002A\u002A,24*%
X89220000Y-22060000D03*
%TD*%
D12*
%TO.P,REF\u002A\u002A,0*%
%TO.N,N/C*%
X89200000Y-33600000D03*
X61600000Y-33600000D03*
D13*
%TO.P,REF\u002A\u002A,1*%
X86900000Y-31100000D03*
%TO.P,REF\u002A\u002A,2*%
X85900000Y-31100000D03*
%TO.P,REF\u002A\u002A,3*%
X84900000Y-31100000D03*
%TO.P,REF\u002A\u002A,4*%
X83900000Y-31100000D03*
%TO.P,REF\u002A\u002A,5*%
X82900000Y-31100000D03*
%TO.P,REF\u002A\u002A,6*%
X81900000Y-31100000D03*
%TO.P,REF\u002A\u002A,7*%
X80900000Y-31100000D03*
%TO.P,REF\u002A\u002A,8*%
X79900000Y-31100000D03*
%TO.P,REF\u002A\u002A,9*%
X78900000Y-31100000D03*
%TO.P,REF\u002A\u002A,10*%
X77900000Y-31100000D03*
%TO.P,REF\u002A\u002A,11*%
X76900000Y-31100000D03*
%TO.P,REF\u002A\u002A,12*%
X75900000Y-31100000D03*
%TO.P,REF\u002A\u002A,13*%
X74900000Y-31100000D03*
%TO.P,REF\u002A\u002A,14*%
X73900000Y-31100000D03*
%TO.P,REF\u002A\u002A,15*%
X72900000Y-31100000D03*
%TO.P,REF\u002A\u002A,16*%
X71900000Y-31100000D03*
%TO.P,REF\u002A\u002A,17*%
X70900000Y-31100000D03*
%TO.P,REF\u002A\u002A,18*%
X69900000Y-31100000D03*
%TO.P,REF\u002A\u002A,19*%
X68900000Y-31100000D03*
%TO.P,REF\u002A\u002A,20*%
X67900000Y-31100000D03*
%TO.P,REF\u002A\u002A,21*%
X66900000Y-31100000D03*
%TO.P,REF\u002A\u002A,22*%
X65900000Y-31100000D03*
%TO.P,REF\u002A\u002A,23*%
X64900000Y-31100000D03*
%TO.P,REF\u002A\u002A,24*%
X63900000Y-31100000D03*
%TD*%
D14*
%TO.N,*%
X90600000Y-23400000D03*
X87900000Y-23300000D03*
X85400000Y-23400000D03*
X82900000Y-23300000D03*
X80300000Y-23400000D03*
X77800000Y-23500000D03*
X75300000Y-23300000D03*
X72700000Y-23300000D03*
X70100000Y-23500000D03*
X67600000Y-23600000D03*
X65100000Y-23500000D03*
X62600000Y-23300000D03*
%TD*%
D15*
%TO.N,*%
X85900000Y-29800000D02*
X90600000Y-25100000D01*
X90600000Y-25100000D02*
X90600000Y-23400000D01*
X85900000Y-31100000D02*
X85900000Y-29800000D01*
X87900000Y-24900000D02*
X87900000Y-23300000D01*
X87900000Y-25100000D02*
X87900000Y-24900000D01*
X84200000Y-28800000D02*
X87900000Y-25100000D01*
X83900000Y-29100000D02*
X84200000Y-28800000D01*
X83900000Y-31100000D02*
X83900000Y-29100000D01*
X85400000Y-25300000D02*
X85400000Y-23400000D01*
X81900000Y-28800000D02*
X85400000Y-25300000D01*
X81900000Y-31100000D02*
X81900000Y-28800000D01*
X82900000Y-24100000D02*
X82900000Y-23300000D01*
X82900000Y-25900000D02*
X82900000Y-24100000D01*
X79900000Y-31100000D02*
X79900000Y-28900000D01*
X79900000Y-28900000D02*
X82900000Y-25900000D01*
X80300000Y-26400000D02*
X80300000Y-23400000D01*
X77900000Y-28800000D02*
X80300000Y-26400000D01*
X77900000Y-31100000D02*
X77900000Y-28800000D01*
X77800000Y-24300000D02*
X77800000Y-23500000D01*
X77800000Y-26300000D02*
X77800000Y-24300000D01*
X75900000Y-28200000D02*
X77800000Y-26300000D01*
X75900000Y-31100000D02*
X75900000Y-28200000D01*
X75300000Y-23700000D02*
X75300000Y-23300000D01*
X75300000Y-26500000D02*
X75300000Y-23700000D01*
X74000000Y-27800000D02*
X75300000Y-26500000D01*
X73900000Y-27900000D02*
X74000000Y-27800000D01*
X73900000Y-31100000D02*
X73900000Y-27900000D01*
X72700000Y-24000000D02*
X72700000Y-23300000D01*
X72700000Y-26500000D02*
X72700000Y-24000000D01*
X71900000Y-27300000D02*
X72700000Y-26500000D01*
X71900000Y-31100000D02*
X71900000Y-27300000D01*
X70100000Y-27000000D02*
X70100000Y-23500000D01*
X70100000Y-27100000D02*
X70100000Y-27000000D01*
X69900000Y-27300000D02*
X70100000Y-27100000D01*
X69900000Y-31100000D02*
X69900000Y-27300000D01*
X67600000Y-26600000D02*
X67600000Y-24900000D01*
X67600000Y-24900000D02*
X67600000Y-23600000D01*
X67900000Y-26900000D02*
X67600000Y-26600000D01*
X67900000Y-31100000D02*
X67900000Y-26900000D01*
X65100000Y-26100000D02*
X65100000Y-23500000D01*
X65900000Y-27000000D02*
X65900000Y-26900000D01*
X65900000Y-26900000D02*
X65100000Y-26100000D01*
X65900000Y-31100000D02*
X65900000Y-27000000D01*
X63900000Y-27400000D02*
X62600000Y-26100000D01*
X63900000Y-27500000D02*
X63900000Y-27400000D01*
X62600000Y-26100000D02*
X62600000Y-23300000D01*
X63900000Y-31100000D02*
X63900000Y-27500000D01*
X63820000Y-22060000D02*
X63820000Y-22420000D01*
%TD*%
M02*
