%TF.GenerationSoftware,KiCad,Pcbnew,7.0.6*%
%TF.CreationDate,2025-05-22T13:23:26+01:00*%
%TF.ProjectId,CubeConnector,43756265-436f-46e6-9e65-63746f722e6b,rev?*%
%TF.SameCoordinates,Original*%
%TF.FileFunction,Copper,L1,Top*%
%TF.FilePolarity,Positive*%
%FSLAX46Y46*%
G04 Gerber Fmt 4.6, Leading zero omitted, Abs format (unit mm)*
G04 Created by KiCad (PCBNEW 7.0.6) date 2025-05-22 13:23:26*
%MOMM*%
%LPD*%
G01*
G04 APERTURE LIST*
%TA.AperFunction,ComponentPad*%
%ADD10R,1.700000X1.700000*%
%TD*%
%TA.AperFunction,ComponentPad*%
%ADD11O,1.700000X1.700000*%
%TD*%
%TA.AperFunction,SMDPad,CuDef*%
%ADD12R,2.000000X1.800000*%
%TD*%
%TA.AperFunction,SMDPad,CuDef*%
%ADD13R,0.600000X1.300000*%
%TD*%
%TA.AperFunction,ViaPad*%
%ADD14C,0.800000*%
%TD*%
%TA.AperFunction,Conductor*%
%ADD15C,0.250000*%
%TD*%
G04 APERTURE END LIST*
D10*
%TO.P,REF\u002A\u002A,1*%
%TO.N,N/C*%
X61280000Y-24600000D03*
D11*
%TO.P,REF\u002A\u002A,2*%
X61280000Y-22060000D03*
%TO.P,REF\u002A\u002A,3*%
X63820000Y-24600000D03*
%TO.P,REF\u002A\u002A,4*%
X63820000Y-22060000D03*
%TO.P,REF\u002A\u002A,5*%
X66360000Y-24600000D03*
%TO.P,REF\u002A\u002A,6*%
X66360000Y-22060000D03*
%TO.P,REF\u002A\u002A,7*%
X68900000Y-24600000D03*
%TO.P,REF\u002A\u002A,8*%
X68900000Y-22060000D03*
%TO.P,REF\u002A\u002A,9*%
X71440000Y-24600000D03*
%TO.P,REF\u002A\u002A,10*%
X71440000Y-22060000D03*
%TO.P,REF\u002A\u002A,11*%
X73980000Y-24600000D03*
%TO.P,REF\u002A\u002A,12*%
X73980000Y-22060000D03*
%TO.P,REF\u002A\u002A,13*%
X76520000Y-24600000D03*
%TO.P,REF\u002A\u002A,14*%
X76520000Y-22060000D03*
%TO.P,REF\u002A\u002A,15*%
X79060000Y-24600000D03*
%TO.P,REF\u002A\u002A,16*%
X79060000Y-22060000D03*
%TO.P,REF\u002A\u002A,17*%
X81600000Y-24600000D03*
%TO.P,REF\u002A\u002A,18*%
X81600000Y-22060000D03*
%TO.P,REF\u002A\u002A,19*%
X84140000Y-24600000D03*
%TO.P,REF\u002A\u002A,20*%
X84140000Y-22060000D03*
%TO.P,REF\u002A\u002A,21*%
X86680000Y-24600000D03*
%TO.P,REF\u002A\u002A,22*%
X86680000Y-22060000D03*
%TO.P,REF\u002A\u002A,23*%
X89220000Y-24600000D03*
%TO.P,REF\u002A\u002A,24*%
X89220000Y-22060000D03*
%TD*%
D12*
%TO.P,REF\u002A\u002A,0*%
%TO.N,N/C*%
X61600000Y-33600000D03*
X89200000Y-33600000D03*
D13*
%TO.P,REF\u002A\u002A,1*%
X63900000Y-31100000D03*
%TO.P,REF\u002A\u002A,2*%
X64900000Y-31100000D03*
%TO.P,REF\u002A\u002A,3*%
X65900000Y-31100000D03*
%TO.P,REF\u002A\u002A,4*%
X66900000Y-31100000D03*
%TO.P,REF\u002A\u002A,5*%
X67900000Y-31100000D03*
%TO.P,REF\u002A\u002A,6*%
X68900000Y-31100000D03*
%TO.P,REF\u002A\u002A,7*%
X69900000Y-31100000D03*
%TO.P,REF\u002A\u002A,8*%
X70900000Y-31100000D03*
%TO.P,REF\u002A\u002A,9*%
X71900000Y-31100000D03*
%TO.P,REF\u002A\u002A,10*%
X72900000Y-31100000D03*
%TO.P,REF\u002A\u002A,11*%
X73900000Y-31100000D03*
%TO.P,REF\u002A\u002A,12*%
X74900000Y-31100000D03*
%TO.P,REF\u002A\u002A,13*%
X75900000Y-31100000D03*
%TO.P,REF\u002A\u002A,14*%
X76900000Y-31100000D03*
%TO.P,REF\u002A\u002A,15*%
X77900000Y-31100000D03*
%TO.P,REF\u002A\u002A,16*%
X78900000Y-31100000D03*
%TO.P,REF\u002A\u002A,17*%
X79900000Y-31100000D03*
%TO.P,REF\u002A\u002A,18*%
X80900000Y-31100000D03*
%TO.P,REF\u002A\u002A,19*%
X81900000Y-31100000D03*
%TO.P,REF\u002A\u002A,20*%
X82900000Y-31100000D03*
%TO.P,REF\u002A\u002A,21*%
X83900000Y-31100000D03*
%TO.P,REF\u002A\u002A,22*%
X84900000Y-31100000D03*
%TO.P,REF\u002A\u002A,23*%
X85900000Y-31100000D03*
%TO.P,REF\u002A\u002A,24*%
X86900000Y-31100000D03*
%TD*%
D14*
%TO.N,*%
X90600000Y-23400000D03*
X87900000Y-23300000D03*
X85400000Y-23400000D03*
X82900000Y-23300000D03*
X80300000Y-23400000D03*
X77800000Y-23500000D03*
X75300000Y-23300000D03*
X72700000Y-23300000D03*
X70100000Y-23500000D03*
X67600000Y-23600000D03*
X65100000Y-23500000D03*
X62600000Y-23300000D03*
%TD*%
D15*
%TO.N,*%
X90600000Y-23400000D02*
X90560000Y-23400000D01*
X90560000Y-23400000D02*
X89220000Y-22060000D01*
X87900000Y-23280000D02*
X86680000Y-22060000D01*
X87900000Y-23300000D02*
X87900000Y-23280000D01*
X85400000Y-23400000D02*
X85400000Y-23320000D01*
X85400000Y-23320000D02*
X84140000Y-22060000D01*
X82900000Y-23300000D02*
X82840000Y-23300000D01*
X82840000Y-23300000D02*
X81600000Y-22060000D01*
X80300000Y-23400000D02*
X80300000Y-23300000D01*
X80300000Y-23300000D02*
X79060000Y-22060000D01*
X77800000Y-23340000D02*
X76520000Y-22060000D01*
X77800000Y-23500000D02*
X77800000Y-23340000D01*
X75220000Y-23300000D02*
X73980000Y-22060000D01*
X75300000Y-23300000D02*
X75220000Y-23300000D01*
X72680000Y-23300000D02*
X71440000Y-22060000D01*
X72700000Y-23300000D02*
X72680000Y-23300000D01*
X70100000Y-23500000D02*
X70100000Y-23260000D01*
X70100000Y-23260000D02*
X68900000Y-22060000D01*
X67600000Y-23300000D02*
X66360000Y-22060000D01*
X67600000Y-23600000D02*
X67600000Y-23300000D01*
X65100000Y-23340000D02*
X63820000Y-22060000D01*
X65100000Y-23500000D02*
X65100000Y-23340000D01*
X62520000Y-23300000D02*
X61280000Y-22060000D01*
X62600000Y-23300000D02*
X62520000Y-23300000D01*
X71900000Y-29600000D02*
X71900000Y-31100000D01*
X71440000Y-24600000D02*
X71440000Y-29140000D01*
X84140000Y-26860000D02*
X81900000Y-29100000D01*
X66360000Y-24600000D02*
X67900000Y-26140000D01*
X85900000Y-29400000D02*
X85900000Y-31100000D01*
X67900000Y-26140000D02*
X67900000Y-31100000D01*
X89220000Y-26080000D02*
X85900000Y-29400000D01*
X86680000Y-24600000D02*
X86680000Y-26720000D01*
X79060000Y-24600000D02*
X77900000Y-25760000D01*
X61280000Y-26180000D02*
X63900000Y-28800000D01*
X81600000Y-27200000D02*
X79900000Y-28900000D01*
X81900000Y-29100000D02*
X81900000Y-31100000D01*
X86680000Y-26720000D02*
X83900000Y-29500000D01*
X75900000Y-29300000D02*
X75900000Y-31100000D01*
X68900000Y-24600000D02*
X69900000Y-25600000D01*
X76520000Y-24600000D02*
X76520000Y-28680000D01*
X73980000Y-24600000D02*
X73980000Y-31020000D01*
X77900000Y-25760000D02*
X77900000Y-31100000D01*
X76520000Y-28680000D02*
X75900000Y-29300000D01*
X73980000Y-31020000D02*
X73900000Y-31100000D01*
X71440000Y-29140000D02*
X71900000Y-29600000D01*
X63820000Y-24600000D02*
X65900000Y-26680000D01*
X79900000Y-28900000D02*
X79900000Y-31100000D01*
X61280000Y-24600000D02*
X61280000Y-26180000D01*
X84140000Y-24600000D02*
X84140000Y-26860000D01*
X65900000Y-26680000D02*
X65900000Y-31100000D01*
X83900000Y-29500000D02*
X83900000Y-31100000D01*
X63900000Y-28800000D02*
X63900000Y-31100000D01*
X81600000Y-24600000D02*
X81600000Y-27200000D01*
X69900000Y-25600000D02*
X69900000Y-31100000D01*
X89220000Y-24600000D02*
X89220000Y-26080000D01*
%TD*%
M02*
