M48
; DRILL file {KiCad 7.0.6} date Thu May 22 13:23:34 2025
; FORMAT={-:-/ absolute / inch / decimal}
; #@! TF.CreationDate,2025-05-22T13:23:34+01:00
; #@! TF.GenerationSoftware,Kicad,Pcbnew,7.0.6
; #@! TF.FileFunction,Plated,1,2,PTH
FMAT,2
INCH
; #@! TA.AperFunction,Plated,PTH,ViaDrill
T1C0.0157
; #@! TA.AperFunction,Plated,PTH,ComponentDrill
T2C0.0394
%
G90
G05
T1
X2.4646Y-0.9173
X2.563Y-0.9252
X2.6614Y-0.9291
X2.7598Y-0.9252
X2.8622Y-0.9173
X2.9646Y-0.9173
X3.063Y-0.9252
X3.1614Y-0.9213
X3.2638Y-0.9173
X3.3622Y-0.9213
X3.4606Y-0.9173
X3.5669Y-0.9213
T2
X2.4126Y-0.8685
X2.4126Y-0.9685
X2.5126Y-0.8685
X2.5126Y-0.9685
X2.6126Y-0.8685
X2.6126Y-0.9685
X2.7126Y-0.8685
X2.7126Y-0.9685
X2.8126Y-0.8685
X2.8126Y-0.9685
X2.9126Y-0.8685
X2.9126Y-0.9685
X3.0126Y-0.8685
X3.0126Y-0.9685
X3.1126Y-0.8685
X3.1126Y-0.9685
X3.2126Y-0.8685
X3.2126Y-0.9685
X3.3126Y-0.8685
X3.3126Y-0.9685
X3.4126Y-0.8685
X3.4126Y-0.9685
X3.5126Y-0.8685
X3.5126Y-0.9685
T0
M30
